<svg viewBox="0 0 600 600">
  <defs>
    <pattern id="grid1" width="40" height="40" patternUnits="userSpaceOnUse">
      <path d="M 40 0 L 0 0 0 40" fill="none" stroke="#000" stroke-width="1.5"/>
    </pattern>
  </defs>
  
  <!-- Fond blanc et grille -->
  <rect width="600" height="600" fill="white"/>
  <rect width="600" height="600" fill="url(#grid1)"/>
  
  <!-- Murs extérieurs -->
  <rect x="80" y="40" width="440" height="40" fill="#666" stroke="#444" stroke-width="4"/>
  <rect x="40" y="40" width="40" height="520" fill="#666" stroke="#444" stroke-width="4"/>
  <rect x="520" y="40" width="40" height="520" fill="#666" stroke="#444" stroke-width="4"/>
  <rect x="80" y="520" width="440" height="40" fill="#666" stroke="#444" stroke-width="4"/>
  
  <!-- Murs intérieurs -->
  <rect x="160" y="80" width="40" height="440" fill="#666" stroke="#444" stroke-width="4"/>
  <rect x="80" y="120" width="40" height="40" fill="#666" stroke="#444" stroke-width="4"/>
  <rect x="80" y="200" width="40" height="40" fill="#666" stroke="#444" stroke-width="4"/>
  <rect x="80" y="280" width="40" height="40" fill="#666" stroke="#444" stroke-width="4"/>
  <rect x="80" y="360" width="80" height="160" fill="#666" stroke="#444" stroke-width="4"/>
  <rect x="320" y="200" width="40" height="40" fill="#666" stroke="#444" stroke-width="4"/>
  
  <rect x="200" y="400" width="280" height="40" fill="#666" stroke="#444" stroke-width="4"/>
  <rect x="240" y="120" width="240" height="40" fill="#666" stroke="#444" stroke-width="4"/>
  <rect x="240" y="320" width="160" height="40" fill="#666" stroke="#444" stroke-width="4"/>
  <rect x="440" y="120" width="40" height="320" fill="#666" stroke="#444" stroke-width="4"/>
  <rect x="240" y="120" width="40" height="240" fill="#666" stroke="#444" stroke-width="4"/>
  <rect x="360" y="200" width="40" height="160" fill="#666" stroke="#444" stroke-width="4"/>
  <rect x="360" y="440" width="40" height="80" fill="#666" stroke="#444" stroke-width="4"/>
  
  
  <!-- Portes et plaques - Paire 1 (Orange) -->
  <rect x="400" y="320" width="40" height="40" fill="#FF8C00" stroke="#885000" stroke-width="4"/>
  <rect x="80" y="160" width="40" height="40" fill="#FF8C00" stroke="#885000" stroke-width="4" rx="8"/>
  
  <!-- Portes et plaques - Paire 2 (Vert) -->
  <rect x="280" y="200" width="40" height="40" fill="#00FF00" stroke="#008800" stroke-width="4"/>
  <rect x="480" y="400" width="40" height="40" fill="#00FF00" stroke="#008800" stroke-width="4"/>
  <rect x="80" y="80" width="40" height="40" fill="#00FF00" stroke="#008800" stroke-width="4" rx="8"/>
  
  <!-- Portes et plaques - Paire 3 (Violet) -->
  <rect x="440" y="80" width="40" height="40" fill="#8A2BE2" stroke="#4A1582" stroke-width="4"/>
  <rect x="80" y="320" width="40" height="40" fill="#8A2BE2" stroke="#4A1582" stroke-width="4" rx="8"/>
  
  <!-- Portes et plaques - Paire 4 (Rose) -->
  <rect x="160" y="80" width="40" height="40" fill="#FF69B4" stroke="#B4447D" stroke-width="4"/>
  <rect x="240" y="360" width="40" height="40" fill="#FF69B4" stroke="#B4447D" stroke-width="4"/>
  <rect x="80" y="240" width="40" height="40" fill="#FF69B4" stroke="#B4447D" stroke-width="4" rx="8"/>
  <rect x="440" y="480" width="40" height="40" fill="#FF69B4" stroke="#B4447D" stroke-width="4" rx="8"/>
  
  <!-- Portes et plaques - Paire 4 (Pourpre) -->
  <rect x="120" y="200" width="40" height="40" fill="#9e0e40" stroke="#B4447D" stroke-width="4"/>
  <rect x="280" y="400" width="40" height="40" fill="#9e0e40" stroke="#B4447D" stroke-width="4"/>
  <rect x="360" y="440" width="40" height="40" fill="#9e0e40" stroke="#B4447D" stroke-width="4"/>
  <rect x="320" y="360" width="40" height="40" fill="#9e0e40" stroke="#B4447D" stroke-width="4" rx="8"/>
  <rect x="280" y="480" width="40" height="40" fill="#9e0e40" stroke="#B4447D" stroke-width="4" rx="8"/>
  <rect x="480" y="240" width="40" height="40" fill="#9e0e40" stroke="#B4447D" stroke-width="4" rx="8"/>
  
  <!-- Joueurs -->
  <circle cx="140.5" cy="140.5" r="15" fill="#4a90e2" stroke="#2171c7" stroke-width="5"/>
  <circle cx="340.5" cy="300.5" r="15" fill="#e24a4a" stroke="#c72121" stroke-width="5"/>
  
  <!-- Objectif -->
  <circle cx="220.5" cy="460.5" r="15" fill="#ffd700" stroke="#b59b00" stroke-width="5"/>
</svg>